#!OML:ASF F:\VICON\USERDATA\INSTALL\rory3\rory3.ASF
:FULLY-SPECIFIED
:DEGREES
45
root -0.08011232247708933 18.155426687107894 9.878909527092507 -3.272899244312339 -2.5539112229915886 -6.285163617012083
lfemur -23.34543483444247 3.0659461057261415 -13.416298696415659
ltibia 61.35856853030626
lfoot -5.621239976395011 -0.8235795356336283
ltoes -5.688945671352023
rfemur -4.491748561001199 6.823330984248832 33.12472381442658
rtibia 27.512418744839625
rfoot -16.628941437268413 -6.8061013718466485
rtoes 7.457288655965716
lowerback 10.070512404084505 1.1677345870060214 5.11507967472774
upperback 0.4475437764924969 2.2799373581821314 2.3109074010779227
thorax -5.072491728272509 1.027721351124378 -0.7779076588944273
lowerneck -16.353892464353024 -3.06857454405003 -1.677561498436031
upperneck 21.392820288921193 -4.010417639552191 0.8507675433197616
head 9.531414768733399 -1.9094466229359575 0.04394462328292986
lclavicle -2.225076493833484e-15 6.564572397851322e-16
lhumerus -33.48800606778442 -0.6592177102457251 84.38527011147067
lradius 26.133593507524843
lwrist 6.05864927951237
lhand -26.72205926756878 23.821053233789595
lfingers 7.12502
lthumb -0.15159632350443608 53.79939405119296
rclavicle -2.225076493833484e-15 6.564572397851322e-16
rhumerus -26.798161984470134 -15.350930417957153 -80.71467764276214
rradius 24.21301322318609
rwrist 5.110764983306421
rhand -17.518842081264996 20.378975902789197
rfingers 7.12502
rthumb 8.734610200988616 -9.409865924070939
46
root -0.06738971692172158 18.104503136333175 10.254312134793476 -2.802476533392155 -3.3070448104203316 -6.9272842668234595
lfemur -25.62766125879471 2.186717004378988 -12.622425759094577
ltibia 53.5563245624103
lfoot -6.220794264283313 1.9571470805589162
ltoes -4.768570211687899
rfemur -2.046554186873898 6.9750008594869595 33.97609353156838
rtibia 26.306855827724746
rfoot -18.21281222704114 -7.181254532612725
rtoes 7.059721006338119
lowerback 10.049199809932668 1.5356861679340472 6.029262943639362
upperback 0.41947606115884306 2.868575135826134 2.2502647444258077
thorax -5.052866725162998 1.2965875924391326 -1.4069866185220392
lowerneck -16.55167880731959 -3.0686924650966123 -1.6089659628647062
upperneck 21.141163568312958 -4.015615687723548 0.835403907654886
head 9.46752453312086 -1.9076764097681242 0.02826786684250436
lclavicle -2.2945361891791507e-15 5.923560673692853e-16
lhumerus -34.43660550443573 -0.22881348805237478 84.4330392234109
lradius 25.963932609858393
lwrist 6.180515816997048
lhand -26.791132117931184 23.629607180221935
lfingers 7.12502
lthumb -0.21830964474659958 53.606070364379995
rclavicle -2.2945361891791507e-15 5.923560673692853e-16
rhumerus -25.703493523817208 -13.099802640596508 -81.44211404925777
rradius 25.49114567187727
rwrist 3.553278992244612
rhand -17.844244562802317 21.13809973427708
rfingers 7.12502
rthumb 8.420572113340567 -8.666734876205126
47
root -0.04623634354888706 18.04341320998129 10.538878660817266 -2.206081551211031 -3.960178740377163 -7.538022361416244
lfemur -26.88354840625741 0.45257916831237477 -11.530271757931917
ltibia 43.06183951089312
lfoot -6.333675503994861 4.617079841284511
ltoes -4.045325938421653
rfemur 0.5920774516487981 7.056362481072064 34.62410601729816
rtibia 24.456250655145244
rfoot -19.64181122173315 -7.613636200551715
rtoes 6.175516839622727
lowerback 9.909775662474535 1.867582336696211 6.795437386029814
upperback 0.3690182291911853 3.385451288014992 2.21642205522801
thorax -4.995664240109791 1.5349515629306711 -1.938358645891697
lowerneck -16.801913312726583 -3.075083688142885 -1.5408355947238008
upperneck 20.87065542917227 -4.028939224736055 0.8375346318623491
head 9.40247775193563 -1.9093442874791255 0.015159281542364664
lclavicle -2.4416909044174596e-15 4.566501813203785e-16
lhumerus -35.33475962040123 0.298053881268944 84.4615807188653
lradius 25.654565230269245
lwrist 6.004421265934308
lhand -26.89395662561657 23.362546185533915
lfingers 7.12502
lthumb -0.3176182756336612 53.33740492011931
rclavicle -2.4416909044174596e-15 4.566501813203784e-16
rhumerus -24.67103944598079 -11.270800249371213 -81.95862103438242
rradius 26.68940747239392
rwrist 2.216808180342274
rhand -18.12983098850036 22.11723452469646
rfingers 7.12502
rthumb 8.144949750069417 -7.701923474149652
48
root -0.01429316440253997 17.972049961364142 11.035002685585654 -1.571153224479048 -4.559557496571294 -8.046841217575858
lfemur -27.177103350221646 -1.8346616437887735 -10.3027275385331
ltibia 31.39470679845893
lfoot -6.332423271611661 6.97934539812354
ltoes -3.811128496282058
rfemur 3.3752930316411724 7.125780952821301 35.03725338845967
rtibia 22.34219688915793
rfoot -20.91900165755475 -7.929895393193006
rtoes 4.697724381305282
lowerback 9.663622725482472 2.1704568288693937 7.346116295515318
upperback 0.30540012482516465 3.830757252770859 2.191749134801
thorax -4.903937273611511 1.7446628806674191 -2.346070037905308
lowerneck -17.045751028037245 -3.0858630424574445 -1.4808081535784778
upperneck 20.634297786424053 -4.049976301975255 0.8690898587776674
head 9.34777859139564 -1.9139816086711228 0.00949367685023872
lclavicle -2.6523699702053343e-15 2.6267194791394493e-16
lhumerus -36.18700109277114 0.9816993085938532 84.43509890462157
lradius 25.12094488043204
lwrist 5.585382234835823
lhand -26.99951792267344 23.224713226029387
lfingers 7.12502
lthumb -0.41956867554231764 53.19858177503243
rclavicle -2.6523699702053343e-15 2.6267194791394493e-16
rhumerus -23.752683967575347 -10.056629968340307 -82.25770549357892
rradius 27.681667157680916
rwrist 1.2667882005134965
rhand -18.365212143615235 22.970862842955004
rfingers 7.12502
rthumb 7.917776730279862 -6.859517672534805
49
root 0.02581468108657603 17.89354064423399 11.571729185100306 -1.0553413462086572 -5.070125706372886 -8.324860757351969
lfemur -26.742236286363774 -4.016204541478662 -9.417488413491297
ltibia 21.02841074211666
lfoot -6.262954661838769 8.386069906573791
ltoes -4.020915405021454
rfemur 6.061062244036858 7.163700291654546 35.13166445314989
rtibia 20.82148036379198
rfoot -21.96172773324786 -7.823283733905064
rtoes 2.4134553493493125
lowerback 9.375034185070305 2.4216549419943267 7.575116971524163
upperback 0.24464634496038712 4.164258253780408 2.1424869273290397
thorax -4.800271841962025 1.907637973211453 -2.5929101547579516
lowerneck -17.234578586323906 -3.10361788079855 -1.4325715047334435
upperneck 20.46548716033008 -4.08615855819537 0.9192296833445343
head 9.311748833814336 -1.9238161660475124 0.010597194081677405
lclavicle -2.8793909880178965e-15 5.397071699132073e-17
lhumerus -36.980041543344115 1.8168615473882874 84.27987476127144
lradius 24.2588353390506
lwrist 4.853831879844886
lhand -27.094032517494664 23.143482545804925
lfingers 7.12502
lthumb -0.5108501790665625 53.1168425955418
rclavicle -2.8793909880178965e-15 5.397071699132073e-17
rhumerus -23.04313009626439 -9.52544935085296 -82.37896242477436
rradius 28.36648659213425
rwrist 0.773602232339627
rhand -18.5159580801943 23.554683427902866
rfingers 7.12502
rthumb 7.772277882701549 -6.282072224400811
50
root 0.07030325922297204 17.81679260685762 12.090947724524106 -0.8171202139923424 -5.387921404958629 -8.31432995017045
lfemur -26.18519520936288 -5.365324807621889 -9.412632418093303
ltibia 14.45090086629482
lfoot -6.071216450000416 8.250808874520217
ltoes -4.356862451515463
rfemur 8.214443066479724 7.095303431073299 34.77708584332516
rtibia 20.41554729235566
rfoot -22.456484311428518 -7.162111419968083
rtoes -0.4508448020449687
lowerback 9.114671137943516 2.5750621960897244 7.449952170010745
upperback 0.19605448409621543 4.328065148767543 2.0375453800362253
thorax -4.718234479957095 1.994692481140525 -2.706086476221923
lowerneck -17.326458309734345 -3.1335221208881867 -1.4210453993351873
upperneck 20.368509763715362 -4.143247472530066 0.9791575887223407
head 9.289210583068348 -1.941767706111834 0.018367016271697456
lclavicle -3.205589954524455e-15 -2.4597352452909075e-16
lhumerus -37.71055859675306 2.7050104261217984 83.95331294065605
lradius 23.109196137762044
lwrist 3.756698464535364
lhand -27.17262251382738 23.026873718847316
lfingers 7.12502
lthumb -0.5867539556459197 52.99993157596381
rclavicle -3.2055899545244546e-15 -2.4597352452909075e-16
rhumerus -22.683583028079436 -9.672162663814678 -82.39460101794278
rradius 28.715280047249657
rwrist 0.645679124183153
rhand -18.615209238674893 23.843288713416474
rfingers 7.12502
rthumb 7.676477068139742 -5.996654205643783
51
root 0.14081684740642986 17.763283305334525 13.651715237350789 -0.839134709997357 -5.266465044313682 -7.827874982967378
lfemur -25.19004308602486 -5.552444401289762 -10.045191323908856
ltibia 13.296501572664816
lfoot -5.1537008757969955 6.834207996235945
ltoes -4.2491730867840145
rfemur 10.448412733788924 7.0064680302135915 34.33325746257469
rtibia 22.192446864245035
rfoot -21.306140186528957 -5.566629241731953
rtoes -2.945237933826158
lowerback 8.949372936435555 2.7113621600537323 7.2461153193097685
upperback 0.1789340227722905 4.459450579293126 1.90941635654859
thorax -4.647893141533629 2.0667385627701176 -2.6172714416687497
lowerneck -17.27077116232836 -3.1722209996352064 -1.4256641676339297
upperneck 20.37801611536232 -4.21105304854806 1.0916940716555072
head 9.290322407475506 -1.9650263032886714 0.04891978320980889
lclavicle -2.7512067125501627e-15 1.727788425173677e-16
lhumerus -38.097099763241204 3.931601602966814 83.52461415393239
lradius 22.00672456180273
lwrist 2.5241119762281823
lhand -27.023500244674175 23.08073186823289
lfingers 7.12502
lthumb -0.44273833373199417 53.05375632064377
rclavicle -2.7512067125501627e-15 1.727788425173675e-16
rhumerus -22.527346221618917 -10.04513485615738 -82.21463945443682
rradius 28.96131683507255
rwrist 0.9453451015295888
rhand -18.63892822789211 24.071511652014316
rfingers 7.12502
rthumb 7.653572350055162 -5.7708057225973
52
root 0.22479364009522995 17.732258274601925 14.75470314506882 -1.1223170049538618 -4.98935319194746 -7.1721304752279185
lfemur -24.80709650142075 -5.0879411847967315 -11.533508739159467
ltibia 15.135406194628167
lfoot -4.120796564769378 4.275469265154159
ltoes -3.9202590260724537
rfemur 11.721698665618334 6.643319492900915 33.32153613703381
rtibia 25.412111361191045
rfoot -18.244912853850725 -3.424263964024208
rtoes -4.671901221308483
lowerback 8.835625845820598 2.7693759750374527 6.770966911295432
upperback 0.1559137361339081 4.4641571176894645 1.696237821988038
thorax -4.62501525970882 2.0795885747689757 -2.531549505134288
lowerneck -17.14279471336074 -3.2274279230683156 -1.4697134974312756
upperneck 20.462048236313496 -4.300917204893077 1.1947266725800838
head 9.305763277741992 -1.9987824517693848 0.07579166559539216
lclavicle -2.6351012777202854e-15 2.7942275479698695e-16
lhumerus -38.58823223111325 5.0784422527988315 83.00553095036385
lradius 20.85021787594963
lwrist 1.2086166215762044
lhand -26.69843906242195 22.974246011340302
lfingers 7.12502
lthumb -0.1287979040093643 52.9478085000862
rclavicle -2.6351012777202854e-15 2.7942275479698695e-16
rhumerus -22.77655472438465 -10.821152412588217 -82.05174045485948
rradius 29.04270875737764
rwrist 1.2314285395786921
rhand -18.664182596979607 24.106656840249205
rfingers 7.12502
rthumb 7.629196784765128 -5.737096266604812
